<svg width="25" height="24" viewBox="0 0 25 24" fill="none" xmlns="http://www.w3.org/2000/svg">
<g clip-path="url(#clip0_4319_3006)">
<path d="M22.9656 0H2.51406C1.53437 0 0.742188 0.773438 0.742188 1.72969V22.2656C0.742188 23.2219 1.53437 24 2.51406 24H22.9656C23.9453 24 24.7422 23.2219 24.7422 22.2703V1.72969C24.7422 0.773438 23.9453 0 22.9656 0ZM7.8625 20.4516H4.3V8.99531H7.8625V20.4516ZM6.08125 7.43438C4.9375 7.43438 4.01406 6.51094 4.01406 5.37187C4.01406 4.23281 4.9375 3.30937 6.08125 3.30937C7.22031 3.30937 8.14375 4.23281 8.14375 5.37187C8.14375 6.50625 7.22031 7.43438 6.08125 7.43438ZM21.1937 20.4516H17.6359V14.8828C17.6359 13.5562 17.6125 11.8453 15.7844 11.8453C13.9328 11.8453 13.6516 13.2937 13.6516 14.7891V20.4516H10.0984V8.99531H13.5109V10.5609H13.5578C14.0312 9.66094 15.1938 8.70938 16.9234 8.70938C20.5281 8.70938 21.1937 11.0813 21.1937 14.1656V20.4516Z" fill="#121212"/>
</g>
<defs>
<clipPath id="clip0_4319_3006">
<rect width="24" height="24" fill="white" transform="translate(0.742188)"/>
</clipPath>
</defs>
</svg>
