<svg width="25" height="24" viewBox="0 0 25 24" fill="none" xmlns="http://www.w3.org/2000/svg">
<path d="M22.3235 7.19989C22.2155 6.76846 21.9956 6.37318 21.686 6.05395C21.3763 5.73473 20.9879 5.50287 20.56 5.3818C18.9964 5 12.7422 5 12.7422 5C12.7422 5 6.48797 5 4.92441 5.41816C4.49648 5.53923 4.10807 5.77109 3.79842 6.09031C3.48877 6.40954 3.26885 6.80482 3.16087 7.23625C2.87471 8.82303 2.73474 10.4327 2.74271 12.0451C2.73251 13.6696 2.87249 15.2916 3.16087 16.8903C3.27991 17.3083 3.50476 17.6886 3.81369 17.9943C4.12262 18.3 4.50518 18.5209 4.92441 18.6357C6.48797 19.0538 12.7422 19.0538 12.7422 19.0538C12.7422 19.0538 18.9964 19.0538 20.56 18.6357C20.9879 18.5146 21.3763 18.2827 21.686 17.9635C21.9956 17.6443 22.2155 17.249 22.3235 16.8176C22.6075 15.2427 22.7474 13.6453 22.7417 12.0451C22.7519 10.4206 22.6119 8.79862 22.3235 7.19989Z" stroke="#121212" stroke-width="2" stroke-linecap="round" stroke-linejoin="round"/>
<path d="M10.4922 9.46533C10.4922 8.98805 10.4922 8.74941 10.5919 8.61618C10.6788 8.50008 10.8119 8.42744 10.9566 8.4171C11.1226 8.40525 11.3233 8.53429 11.7248 8.79239L15.6676 11.3271C16.016 11.551 16.1902 11.663 16.2504 11.8054C16.3029 11.9298 16.3029 12.0702 16.2504 12.1946C16.1902 12.337 16.016 12.449 15.6676 12.6729L11.7248 15.2076C11.3233 15.4657 11.1226 15.5948 10.9566 15.5829C10.8119 15.5726 10.6788 15.4999 10.5919 15.3838C10.4922 15.2506 10.4922 15.012 10.4922 14.5347V9.46533Z" stroke="#121212" stroke-width="2" stroke-linecap="round" stroke-linejoin="round"/>
</svg>
